<?xml version="1.0" standalone="no"?><!DOCTYPE svg PUBLIC "-//W3C//DTD SVG 1.1//EN" "http://www.w3.org/Graphics/SVG/1.1/DTD/svg11.dtd"><svg t="1676706259822" class="icon" viewBox="0 0 1024 1024" version="1.1" xmlns="http://www.w3.org/2000/svg" p-id="24682" xmlns:xlink="http://www.w3.org/1999/xlink" width="32" height="32"><path d="M528.604 19c143.422 0 240.23 80.851 240.23 215.593 0 16.519-13.39 29.91-29.908 29.91-16.28 0-29.524-13.012-29.899-29.204l-0.008-0.706c0-99.08-67.883-155.774-180.415-155.774-104.406 0-189.235 83.751-190.921 187.699l-0.026 3.156v105.939h434.806C855.05 375.614 922 442.569 922 525.162v285.291C922 893.045 855.05 960 772.463 960H252.537C169.95 960 103 893.045 103 810.452v-285.29c0-82.594 66.95-149.548 149.537-149.548l25.305-0.001v-105.94C277.843 131.228 390.117 19 528.605 19z m-16.097 559.078h-0.014c-16.348 0-29.632 13.12-29.896 29.406l-0.004 0.494v161.07c0 16.349 13.12 29.633 29.405 29.897l0.495 0.004h0.014c16.348 0 29.632-13.12 29.896-29.406l0.004-0.494v-161.07c0-16.514-13.386-29.9-29.9-29.9z" fill="#e5b151" p-id="24683"></path></svg>