<?xml version="1.0" standalone="no"?><!DOCTYPE svg PUBLIC "-//W3C//DTD SVG 1.1//EN" "http://www.w3.org/Graphics/SVG/1.1/DTD/svg11.dtd"><svg t="1676653887106" class="icon" viewBox="0 0 1024 1024" version="1.1" xmlns="http://www.w3.org/2000/svg" p-id="1259" id="mx_n_1676653887107" width="32" height="32" xmlns:xlink="http://www.w3.org/1999/xlink"><path d="M512 64C264.618667 64 64 264.618667 64 512S264.618667 960 512 960 960 759.381333 960 512 759.381333 64 512 64z m193.493333 301.696L494.933333 657.706667a31.786667 31.786667 0 0 1-51.712 0l-124.672-172.8a8.021333 8.021333 0 0 1 6.485334-12.714667h46.933333c10.154667 0 19.882667 4.906667 25.856 13.312l71.253333 98.816 157.184-218.026667a32 32 0 0 1 25.898667-13.312h46.890667c6.485333 0 10.282667 7.424 6.485333 12.714667z" fill="#7a79ca" p-id="1260"></path></svg>